# xmcd CD database file
#
# Track frame offsets:
#	150
#	16917
#	31647
#	46635
#	61090
#	77356
#	95566
#	112765
#	127986
#	144468
#
# Disc length: 2156 seconds
#
# Revision: 0
# Processed by: cddbd v1.5.2PL0 Copyright (c) Steve Scherf et al.
# Submitted via: CDex 1.51
#
DISCID=64086a0a
DTITLE=Sunny Sweeney - Trophy
DYEAR=2017
DGENRE=Country
TTITLE0=Pass The Pain
TTITLE1=Better Bad Idea
TTITLE2=Nothing Wrong With Texas
TTITLE3=Pills
TTITLE4=Bottle By My Bed
TTITLE5=Why People Change
TTITLE6=I Feel Like Hank Williams Tonight
TTITLE7=Grow Old With Me
TTITLE8=Trophy
TTITLE9=Unsaid
EXTD=YEAR: 2017
EXTT0=
EXTT1=
EXTT2=
EXTT3=
EXTT4=
EXTT5=
EXTT6=
EXTT7=
EXTT8=
EXTT9=
PLAYORDER=
